<svg xmlns="http://www.w3.org/2000/svg" viewBox="0 0 128 128" role="img" aria-label="TM software AI logo">
  <defs>
    <linearGradient id="tmGradA" x1="0%" y1="0%" x2="100%" y2="100%">
      <stop offset="0%" stop-color="#32d1ff" />
      <stop offset="100%" stop-color="#1578e0" />
    </linearGradient>
    <linearGradient id="tmGradB" x1="0%" y1="0%" x2="100%" y2="100%">
      <stop offset="0%" stop-color="#29b9ff" />
      <stop offset="100%" stop-color="#0f5dc5" />
    </linearGradient>
    <linearGradient id="tmGradC" x1="0%" y1="0%" x2="100%" y2="100%">
      <stop offset="0%" stop-color="#1f9cf2" />
      <stop offset="100%" stop-color="#0b3ea5" />
    </linearGradient>
  </defs>
  <path d="M58 12c-15 16-24 33-24 49 0 17 10 33 27 46-11-20-12-40-3-95z" fill="url(#tmGradA)" />
  <path d="M73 16c-15 15-23 31-23 47 0 17 8 31 22 44-8-19-8-39 1-91z" fill="url(#tmGradB)" />
  <path d="M88 24c-14 14-21 28-21 44 0 15 7 29 19 40-5-17-4-35 2-84z" fill="url(#tmGradC)" />
</svg>
