<?xml version="1.0" standalone="no"?>
<!DOCTYPE svg PUBLIC "-//W3C//DTD SVG 20010904//EN"
 "http://www.w3.org/TR/2001/REC-SVG-20010904/DTD/svg10.dtd">
<svg version="1.0" xmlns="http://www.w3.org/2000/svg"
 width="225.000000pt" height="225.000000pt" viewBox="0 0 225.000000 225.000000"
 preserveAspectRatio="xMidYMid meet">

<g transform="translate(0.000000,225.000000) scale(0.100000,-0.100000)"
fill="#000000" stroke="none">
<path d="M1145 1739 c-4 -6 -5 -12 -2 -15 2 -3 7 2 10 11 7 17 1 20 -8 4z"/>
<path d="M1194 1684 c12 -24 22 -40 24 -35 4 11 -24 67 -36 75 -4 3 1 -15 12
-40z"/>
<path d="M1091 1642 c-14 -20 -18 -31 -9 -25 8 7 19 9 23 5 5 -4 5 -1 1 6 -4
7 -2 20 5 28 6 8 10 16 8 19 -2 2 -15 -13 -28 -33z"/>
<path d="M1203 1616 c4 -10 3 -15 -3 -11 -5 3 -28 -12 -52 -34 -30 -29 -45
-37 -50 -28 -5 8 -8 9 -8 0 0 -6 -9 -9 -22 -5 -14 3 -19 2 -14 -6 4 -7 3 -12
-2 -12 -6 0 -12 7 -16 15 -8 23 -18 18 -50 -23 -26 -32 -26 -34 -6 -17 14 11
31 27 38 35 7 8 11 10 8 3 -4 -6 -2 -14 4 -18 15 -9 12 -28 -3 -22 -19 7 -51
-19 -41 -35 6 -10 4 -10 -9 1 -11 9 -17 10 -17 2 0 -6 -4 -11 -10 -11 -5 0 -6
8 -3 17 4 10 -24 -16 -63 -56 -68 -72 -96 -110 -58 -81 18 14 18 14 5 -2 -7
-10 -17 -15 -22 -13 -15 10 -39 -53 -39 -100 0 -26 5 -56 11 -68 15 -30 59
-76 84 -89 16 -9 18 -8 8 3 -44 46 15 159 150 285 45 42 81 80 79 86 -1 5 2 7
7 3 11 -6 58 52 53 67 -1 5 2 7 7 3 12 -7 51 65 51 94 0 11 -5 23 -12 27 -8 5
-9 2 -5 -10z m-51 -93 c-6 -3 -9 -10 -5 -16 4 -7 -1 -6 -10 2 -21 17 -21 17 6
18 12 0 16 -1 9 -4z m-121 -66 c-10 -9 -11 -8 -5 6 3 10 9 15 12 12 3 -3 0
-11 -7 -18z m-77 -46 c-6 -6 -24 19 -24 34 1 6 7 1 15 -9 8 -11 12 -22 9 -25z
m-34 -26 c9 6 11 4 6 -4 -5 -7 -14 -10 -21 -7 -16 6 -48 -27 -38 -39 5 -5 0
-3 -9 4 -21 16 -23 22 -6 19 7 -2 12 3 13 10 0 18 28 34 36 20 4 -6 12 -7 19
-3z m-50 -81 c0 -8 -19 -13 -24 -6 -3 5 1 9 9 9 8 0 15 -2 15 -3z"/>
<path d="M1098 1583 c5 -21 7 -23 10 -9 2 10 0 22 -6 28 -6 6 -7 0 -4 -19z"/>
<path d="M1044 1578 c-16 -18 -17 -21 -2 -15 9 3 19 1 22 -6 3 -9 5 -8 5 1 1
7 6 10 11 7 15 -9 12 11 -3 24 -11 8 -18 6 -33 -11z"/>
<path d="M1276 1555 c-26 -61 -74 -122 -206 -261 -72 -74 -138 -149 -147 -167
-9 -18 -17 -55 -17 -83 0 -60 32 -118 82 -147 l31 -17 -15 28 c-29 59 17 131
193 302 168 163 196 234 133 333 -16 26 -32 47 -35 47 -2 0 -11 -16 -19 -35z"/>
<path d="M1396 1359 c-21 -43 -71 -104 -173 -212 -149 -159 -183 -208 -183
-271 0 -60 39 -125 92 -152 l27 -14 -16 29 c-16 26 -16 31 2 77 14 38 52 83
170 204 164 168 193 214 182 286 -6 37 -51 114 -65 113 -4 0 -20 -27 -36 -60z"/>
<path d="M1572 1305 c-7 -8 -8 -15 -3 -15 5 0 11 -8 14 -17 2 -10 4 -3 4 15 0
17 0 32 -1 32 -1 -1 -7 -7 -14 -15z"/>
<path d="M2070 750 c-8 -11 -18 -20 -23 -20 -5 0 -15 -7 -24 -15 -8 -8 -18
-13 -23 -10 -5 3 -17 -8 -26 -25 -10 -16 -24 -30 -30 -30 -20 0 -51 -47 -70
-105 -9 -30 -21 -55 -25 -55 -5 0 -9 -8 -9 -17 -1 -25 -54 -92 -90 -114 -16
-10 -29 -22 -28 -26 5 -22 -16 -83 -28 -83 -17 0 -18 -16 -1 -24 10 -5 10 -7
0 -12 -7 -3 -13 -21 -13 -39 0 -38 31 -90 85 -142 l34 -33 226 0 225 0 0 385
0 385 -83 0 c-71 0 -85 -3 -97 -20z"/>
<path d="M858 619 c-11 -6 -18 -22 -18 -39 0 -25 6 -30 43 -42 23 -8 42 -21
42 -29 0 -20 -39 -23 -55 -4 -14 16 -40 21 -40 6 0 -36 94 -57 120 -27 23 29
8 59 -38 76 -51 17 -59 34 -19 38 15 2 27 -1 27 -7 0 -6 7 -11 15 -11 22 0 19
27 -4 40 -25 13 -51 12 -73 -1z"/>
<path d="M1130 601 c0 -11 -6 -22 -12 -25 -10 -5 -10 -7 0 -12 7 -3 12 -24 12
-50 0 -24 5 -44 10 -44 6 0 10 20 10 44 0 26 5 46 13 49 9 4 9 8 -2 15 -9 7
-10 12 -2 16 18 11 13 26 -9 26 -13 0 -20 -7 -20 -19z"/>
<path d="M510 598 c0 -4 9 -8 20 -8 18 0 20 -7 20 -60 0 -46 3 -60 15 -60 10
0 15 15 17 58 3 50 6 57 26 60 12 2 22 8 22 13 0 6 -26 9 -60 8 -33 -1 -60 -6
-60 -11z"/>
<path d="M640 541 c0 -56 3 -71 15 -71 10 0 15 11 16 38 l1 37 10 -37 c14 -54
42 -51 55 5 l11 42 1 -42 c1 -31 5 -43 16 -43 12 0 15 14 15 70 0 67 -1 70
-24 70 -20 0 -25 -6 -30 -45 -9 -56 -21 -57 -32 -2 -7 33 -14 43 -32 45 -21 3
-22 0 -22 -67z"/>
<path d="M1200 596 c0 -8 -6 -17 -12 -20 -10 -5 -10 -7 0 -12 7 -3 12 -24 12
-50 0 -40 2 -44 25 -44 14 0 25 5 25 10 0 6 -4 10 -10 10 -15 0 -12 67 3 74
10 5 10 7 0 12 -7 3 -13 12 -13 20 0 8 -7 14 -15 14 -8 0 -15 -6 -15 -14z"/>
<path d="M1013 580 c-30 -12 -39 -54 -19 -85 21 -32 80 -35 96 -6 30 58 -18
114 -77 91z m52 -31 c10 -16 -4 -59 -19 -59 -21 0 -38 27 -31 50 7 21 39 27
50 9z"/>
<path d="M1468 583 c-9 -2 -19 -11 -22 -19 -5 -12 1 -14 29 -8 44 8 46 -9 3
-21 -26 -8 -33 -15 -33 -35 0 -23 4 -25 48 -27 l47 -2 0 50 c0 44 -3 51 -26
59 -14 6 -26 9 -27 9 -1 -1 -9 -3 -19 -6z m40 -75 c-7 -19 -38 -22 -38 -4 0
10 9 16 21 16 12 0 19 -5 17 -12z"/>
<path d="M1672 574 c-26 -18 -30 -75 -8 -93 18 -15 78 -10 84 7 3 8 -6 12 -29
10 -18 -2 -34 2 -36 10 -3 8 8 12 37 12 38 0 41 2 35 23 -7 24 -32 47 -50 47
-6 0 -21 -7 -33 -16z m48 -24 c0 -5 -9 -10 -20 -10 -11 0 -20 5 -20 10 0 6 9
10 20 10 11 0 20 -4 20 -10z"/>
<path d="M1263 566 c3 -8 11 -33 17 -56 13 -48 43 -53 48 -7 4 35 20 35 24 0
2 -17 10 -29 20 -31 13 -2 21 10 32 49 19 64 19 59 1 59 -8 0 -17 -14 -21 -36
-7 -39 -24 -29 -24 14 0 15 -6 22 -20 22 -14 0 -20 -7 -20 -22 0 -13 -5 -30
-10 -38 -8 -12 -10 -11 -10 7 0 33 -10 53 -27 53 -9 0 -13 -6 -10 -14z"/>
<path d="M1570 524 c0 -41 4 -54 15 -54 11 0 15 11 15 39 0 30 4 40 20 44 33
8 23 25 -15 25 l-35 0 0 -54z"/>
<path d="M0 450 c0 -29 4 -40 15 -40 11 0 15 11 15 40 0 29 -4 40 -15 40 -11
0 -15 -11 -15 -40z"/>
</g>
</svg>
